{
  "version": "1.1.6",
  "modules": [
    {
      "id": 1,
      "plugin": "Core",
      "version": "1.1.6",
      "model": "AudioInterface",
      "params": [],
      "leftModuleId": 100,
      "rightModuleId": 104,
      "data": {
        "audio": {
          "driver": 5,
          "deviceName": "Apple Inc.: Built-in Output",
          "offset": 0,
          "maxChannels": 8,
          "sampleRate": 44100,
          "blockSize": 4096
        }
      },
      "pos": [
        123,
        1
      ]
    },
    {
      "id": 83,
      "plugin": "Fundamental",
      "version": "1.4.0",
      "model": "VCO",
      "params": [
        {
          "id": 0,
          "value": 1.0
        },
        {
          "id": 1,
          "value": 1.0
        },
        {
          "id": 2,
          "value": -11.7179995
        },
        {
          "id": 3,
          "value": 0.0
        },
        {
          "id": 4,
          "value": 0.34950003
        },
        {
          "id": 5,
          "value": 0.5
        },
        {
          "id": 6,
          "value": 0.0
        }
      ],
      "leftModuleId": 94,
      "rightModuleId": 84,
      "pos": [
        6,
        0
      ]
    },
    {
      "id": 84,
      "plugin": "Fundamental",
      "version": "1.4.0",
      "model": "VCO",
      "params": [
        {
          "id": 0,
          "value": 1.0
        },
        {
          "id": 1,
          "value": 1.0
        },
        {
          "id": 2,
          "value": -14.0940008
        },
        {
          "id": 3,
          "value": 0.0
        },
        {
          "id": 4,
          "value": 0.995500028
        },
        {
          "id": 5,
          "value": 0.5
        },
        {
          "id": 6,
          "value": 0.0
        }
      ],
      "leftModuleId": 83,
      "rightModuleId": 93,
      "pos": [
        16,
        0
      ]
    },
    {
      "id": 87,
      "plugin": "Fundamental",
      "version": "1.4.0",
      "model": "Random",
      "params": [
        {
          "id": 0,
          "value": 1.0
        },
        {
          "id": 1,
          "value": 1.0
        },
        {
          "id": 2,
          "value": 0.0
        },
        {
          "id": 3,
          "value": 1.0
        }
      ],
      "rightModuleId": 90,
      "pos": [
        46,
        0
      ]
    },
    {
      "id": 88,
      "plugin": "Fundamental",
      "version": "1.4.0",
      "model": "VCMixer",
      "params": [
        {
          "id": 0,
          "value": 0.996999979
        },
        {
          "id": 1,
          "value": 0.898176014
        },
        {
          "id": 2,
          "value": 1.0
        },
        {
          "id": 3,
          "value": 1.0
        },
        {
          "id": 4,
          "value": 0.762412012
        }
      ],
      "leftModuleId": 92,
      "rightModuleId": 95,
      "pos": [
        85,
        0
      ]
    },
    {
      "id": 89,
      "plugin": "Fundamental",
      "version": "1.4.0",
      "model": "VCMixer",
      "params": [
        {
          "id": 0,
          "value": 1.87700021
        },
        {
          "id": 1,
          "value": 1.0
        },
        {
          "id": 2,
          "value": 1.0
        },
        {
          "id": 3,
          "value": 1.3054713
        },
        {
          "id": 4,
          "value": 1.0
        }
      ],
      "leftModuleId": 91,
      "rightModuleId": 92,
      "pos": [
        67,
        0
      ]
    },
    {
      "id": 90,
      "plugin": "Fundamental",
      "version": "1.4.0",
      "model": "VCF",
      "params": [
        {
          "id": 0,
          "value": 0.692499816
        },
        {
          "id": 1,
          "value": 0.5
        },
        {
          "id": 2,
          "value": 0.574500144
        },
        {
          "id": 3,
          "value": 0.56099993
        },
        {
          "id": 4,
          "value": 0.0
        }
      ],
      "leftModuleId": 87,
      "rightModuleId": 91,
      "pos": [
        51,
        0
      ]
    },
    {
      "id": 91,
      "plugin": "Fundamental",
      "version": "1.4.0",
      "model": "VCF",
      "params": [
        {
          "id": 0,
          "value": 0.670000017
        },
        {
          "id": 1,
          "value": 0.5
        },
        {
          "id": 2,
          "value": 0.539999843
        },
        {
          "id": 3,
          "value": 0.542999983
        },
        {
          "id": 4,
          "value": 0.0390001461
        }
      ],
      "leftModuleId": 90,
      "rightModuleId": 89,
      "pos": [
        59,
        0
      ]
    },
    {
      "id": 92,
      "plugin": "Fundamental",
      "version": "1.4.0",
      "model": "8vert",
      "params": [
        {
          "id": 0,
          "value": 0.0
        },
        {
          "id": 1,
          "value": 0.0
        },
        {
          "id": 2,
          "value": 0.0
        },
        {
          "id": 3,
          "value": 0.0
        },
        {
          "id": 4,
          "value": 0.0
        },
        {
          "id": 5,
          "value": 0.0
        },
        {
          "id": 6,
          "value": 0.0
        },
        {
          "id": 7,
          "value": -0.741999924
        }
      ],
      "leftModuleId": 89,
      "rightModuleId": 88,
      "pos": [
        77,
        0
      ]
    },
    {
      "id": 93,
      "plugin": "Fundamental",
      "version": "1.4.0",
      "model": "VCO",
      "params": [
        {
          "id": 0,
          "value": 1.0
        },
        {
          "id": 1,
          "value": 1.0
        },
        {
          "id": 2,
          "value": -51.3539963
        },
        {
          "id": 3,
          "value": 0.0
        },
        {
          "id": 4,
          "value": 0.995500028
        },
        {
          "id": 5,
          "value": 0.5
        },
        {
          "id": 6,
          "value": 0.0
        }
      ],
      "leftModuleId": 84,
      "pos": [
        26,
        0
      ]
    },
    {
      "id": 94,
      "plugin": "AudibleInstruments",
      "version": "1.2.0",
      "model": "Shades",
      "params": [
        {
          "id": 0,
          "value": 0.0994999036
        },
        {
          "id": 1,
          "value": 0.5
        },
        {
          "id": 2,
          "value": 0.5
        },
        {
          "id": 3,
          "value": 1.0
        },
        {
          "id": 4,
          "value": 1.0
        },
        {
          "id": 5,
          "value": 1.0
        }
      ],
      "rightModuleId": 83,
      "pos": [
        0,
        0
      ]
    },
    {
      "id": 95,
      "plugin": "AudibleInstruments",
      "version": "1.2.0",
      "model": "Rings",
      "params": [
        {
          "id": 0,
          "value": 0.0
        },
        {
          "id": 1,
          "value": 0.0
        },
        {
          "id": 2,
          "value": 33.5100136
        },
        {
          "id": 3,
          "value": 0.128999993
        },
        {
          "id": 4,
          "value": 0.589999735
        },
        {
          "id": 5,
          "value": 0.455500066
        },
        {
          "id": 6,
          "value": 0.5
        },
        {
          "id": 7,
          "value": -0.16200003
        },
        {
          "id": 8,
          "value": 0.121999957
        },
        {
          "id": 9,
          "value": 0.0929999128
        },
        {
          "id": 10,
          "value": 0.0179999806
        },
        {
          "id": 11,
          "value": 0.303000003
        }
      ],
      "leftModuleId": 88,
      "rightModuleId": 96,
      "data": {
        "polyphony": 1,
        "model": 0,
        "easterEgg": false
      },
      "pos": [
        95,
        0
      ]
    },
    {
      "id": 96,
      "plugin": "AudibleInstruments",
      "version": "1.2.0",
      "model": "Shades",
      "params": [
        {
          "id": 0,
          "value": 0.606499851
        },
        {
          "id": 1,
          "value": 0.291499883
        },
        {
          "id": 2,
          "value": 0.774499953
        },
        {
          "id": 3,
          "value": 1.0
        },
        {
          "id": 4,
          "value": 1.0
        },
        {
          "id": 5,
          "value": 1.0
        }
      ],
      "leftModuleId": 95,
      "rightModuleId": 99,
      "pos": [
        109,
        0
      ]
    },
    {
      "id": 97,
      "plugin": "Fundamental",
      "version": "1.4.0",
      "model": "SEQ3",
      "params": [
        {
          "id": 0,
          "value": 2.0
        },
        {
          "id": 1,
          "value": 0.0
        },
        {
          "id": 2,
          "value": 0.0
        },
        {
          "id": 3,
          "value": 1.0
        },
        {
          "id": 4,
          "value": 0.98999995
        },
        {
          "id": 5,
          "value": 0.644999981
        },
        {
          "id": 6,
          "value": 0.0
        },
        {
          "id": 7,
          "value": 0.0
        },
        {
          "id": 8,
          "value": 2.22000027
        },
        {
          "id": 9,
          "value": 1.19999981
        },
        {
          "id": 10,
          "value": 0.0
        },
        {
          "id": 11,
          "value": 0.0
        },
        {
          "id": 12,
          "value": 0.0
        },
        {
          "id": 13,
          "value": 4.96500158
        },
        {
          "id": 14,
          "value": 0.0
        },
        {
          "id": 15,
          "value": 5.21999979
        },
        {
          "id": 16,
          "value": 0.0
        },
        {
          "id": 17,
          "value": 0.0
        },
        {
          "id": 18,
          "value": 0.0
        },
        {
          "id": 19,
          "value": 10.0
        },
        {
          "id": 20,
          "value": 1.45500016
        },
        {
          "id": 21,
          "value": 2.75999999
        },
        {
          "id": 22,
          "value": 0.899999976
        },
        {
          "id": 23,
          "value": 2.05500031
        },
        {
          "id": 24,
          "value": 2.56499982
        },
        {
          "id": 25,
          "value": 10.0
        },
        {
          "id": 26,
          "value": 1.56000006
        },
        {
          "id": 27,
          "value": 0.554999948
        },
        {
          "id": 28,
          "value": 0.0
        },
        {
          "id": 29,
          "value": 0.0
        },
        {
          "id": 30,
          "value": 0.0
        },
        {
          "id": 31,
          "value": 0.0
        },
        {
          "id": 32,
          "value": 0.0
        },
        {
          "id": 33,
          "value": 0.0
        },
        {
          "id": 34,
          "value": 0.0
        },
        {
          "id": 35,
          "value": 0.0
        }
      ],
      "data": {
        "running": true,
        "gates": [
          1,
          1,
          1,
          1,
          1,
          1,
          1,
          1
        ]
      },
      "pos": [
        52,
        1
      ]
    },
    {
      "id": 99,
      "plugin": "AudibleInstruments",
      "version": "1.2.0",
      "model": "Rings",
      "params": [
        {
          "id": 0,
          "value": 0.0
        },
        {
          "id": 1,
          "value": 0.0
        },
        {
          "id": 2,
          "value": 47.9099922
        },
        {
          "id": 3,
          "value": 0.40199998
        },
        {
          "id": 4,
          "value": 0.774499953
        },
        {
          "id": 5,
          "value": 0.380000114
        },
        {
          "id": 6,
          "value": 0.5
        },
        {
          "id": 7,
          "value": -0.129000142
        },
        {
          "id": 8,
          "value": 0.26699993
        },
        {
          "id": 9,
          "value": 0.0
        },
        {
          "id": 10,
          "value": 0.0
        },
        {
          "id": 11,
          "value": 0.0
        }
      ],
      "leftModuleId": 96,
      "data": {
        "polyphony": 1,
        "model": 2,
        "easterEgg": false
      },
      "pos": [
        115,
        0
      ]
    },
    {
      "id": 100,
      "plugin": "AudibleInstruments",
      "version": "1.2.0",
      "model": "Shades",
      "params": [
        {
          "id": 0,
          "value": 0.996999979
        },
        {
          "id": 1,
          "value": 0.80550015
        },
        {
          "id": 2,
          "value": 0.5
        },
        {
          "id": 3,
          "value": 0.0
        },
        {
          "id": 4,
          "value": 0.0
        },
        {
          "id": 5,
          "value": 1.0
        }
      ],
      "leftModuleId": 102,
      "rightModuleId": 1,
      "pos": [
        117,
        1
      ]
    },
    {
      "id": 101,
      "plugin": "Fundamental",
      "version": "1.4.0",
      "model": "Random",
      "params": [
        {
          "id": 0,
          "value": 6.50111341
        },
        {
          "id": 1,
          "value": 0.827000022
        },
        {
          "id": 2,
          "value": 1.0
        },
        {
          "id": 3,
          "value": 1.0
        }
      ],
      "pos": [
        75,
        1
      ]
    },
    {
      "id": 102,
      "plugin": "AudibleInstruments",
      "version": "1.2.0",
      "model": "Clouds",
      "params": [
        {
          "id": 0,
          "value": 0.0
        },
        {
          "id": 1,
          "value": 0.0
        },
        {
          "id": 2,
          "value": 0.0
        },
        {
          "id": 3,
          "value": 0.0
        },
        {
          "id": 4,
          "value": 0.0465000011
        },
        {
          "id": 5,
          "value": -2.0
        },
        {
          "id": 6,
          "value": 0.838999867
        },
        {
          "id": 7,
          "value": 0.628499806
        },
        {
          "id": 8,
          "value": 0.0540000051
        },
        {
          "id": 9,
          "value": 0.5
        },
        {
          "id": 10,
          "value": 0.0
        },
        {
          "id": 11,
          "value": 0.0
        },
        {
          "id": 12,
          "value": 0.00450008176
        }
      ],
      "leftModuleId": 103,
      "rightModuleId": 100,
      "data": {
        "playback": 0,
        "quality": 0,
        "blendMode": 3
      },
      "pos": [
        99,
        1
      ]
    },
    {
      "id": 103,
      "plugin": "AudibleInstruments",
      "version": "1.2.0",
      "model": "Shades",
      "params": [
        {
          "id": 0,
          "value": 1.0
        },
        {
          "id": 1,
          "value": 1.0
        },
        {
          "id": 2,
          "value": 0.5
        },
        {
          "id": 3,
          "value": 1.0
        },
        {
          "id": 4,
          "value": 1.0
        },
        {
          "id": 5,
          "value": 1.0
        }
      ],
      "rightModuleId": 102,
      "pos": [
        93,
        1
      ]
    },
    {
      "id": 104,
      "plugin": "NYSTHI",
      "version": "1.0.11",
      "model": "MasterRecorder",
      "params": [
        {
          "id": 0,
          "value": 0.0
        },
        {
          "id": 1,
          "value": 0.0
        },
        {
          "id": 2,
          "value": 0.0
        }
      ],
      "leftModuleId": 1,
      "data": {
        "nysthi_id": "MR_73mHHOqq",
        "wavebits": 9,
        "m_attenuation": 1.0
      },
      "pos": [
        133,
        1
      ]
    }
  ],
  "cables": [
    {
      "id": 201,
      "outputModuleId": 83,
      "outputId": 2,
      "inputModuleId": 89,
      "inputId": 1,
      "color": "#c91847"
    },
    {
      "id": 202,
      "outputModuleId": 92,
      "outputId": 7,
      "inputModuleId": 84,
      "inputId": 0,
      "color": "#0986ad"
    },
    {
      "id": 203,
      "outputModuleId": 84,
      "outputId": 2,
      "inputModuleId": 89,
      "inputId": 2,
      "color": "#c9b70e"
    },
    {
      "id": 204,
      "outputModuleId": 89,
      "outputId": 0,
      "inputModuleId": 91,
      "inputId": 3,
      "color": "#0c8e15"
    },
    {
      "id": 207,
      "outputModuleId": 83,
      "outputId": 1,
      "inputModuleId": 91,
      "inputId": 0,
      "color": "#c9b70e"
    },
    {
      "id": 208,
      "outputModuleId": 91,
      "outputId": 1,
      "inputModuleId": 84,
      "inputId": 1,
      "color": "#0c8e15"
    },
    {
      "id": 209,
      "outputModuleId": 87,
      "outputId": 0,
      "inputModuleId": 83,
      "inputId": 1,
      "color": "#c91847"
    },
    {
      "id": 200,
      "outputModuleId": 92,
      "outputId": 7,
      "inputModuleId": 83,
      "inputId": 0,
      "color": "#0c8e15"
    },
    {
      "id": 210,
      "outputModuleId": 84,
      "outputId": 3,
      "inputModuleId": 87,
      "inputId": 0,
      "color": "#0986ad"
    },
    {
      "id": 211,
      "outputModuleId": 83,
      "outputId": 3,
      "inputModuleId": 88,
      "inputId": 1,
      "color": "#c9b70e"
    },
    {
      "id": 212,
      "outputModuleId": 83,
      "outputId": 2,
      "inputModuleId": 88,
      "inputId": 2,
      "color": "#0c8e15"
    },
    {
      "id": 213,
      "outputModuleId": 91,
      "outputId": 1,
      "inputModuleId": 88,
      "inputId": 3,
      "color": "#0986ad"
    },
    {
      "id": 214,
      "outputModuleId": 88,
      "outputId": 0,
      "inputModuleId": 90,
      "inputId": 3,
      "color": "#0c8e15"
    },
    {
      "id": 215,
      "outputModuleId": 90,
      "outputId": 0,
      "inputModuleId": 89,
      "inputId": 3,
      "color": "#c91847"
    },
    {
      "id": 216,
      "outputModuleId": 91,
      "outputId": 0,
      "inputModuleId": 90,
      "inputId": 0,
      "color": "#0986ad"
    },
    {
      "id": 217,
      "outputModuleId": 87,
      "outputId": 2,
      "inputModuleId": 90,
      "inputId": 2,
      "color": "#0c8e15"
    },
    {
      "id": 218,
      "outputModuleId": 87,
      "outputId": 3,
      "inputModuleId": 89,
      "inputId": 7,
      "color": "#0986ad"
    },
    {
      "id": 219,
      "outputModuleId": 93,
      "outputId": 2,
      "inputModuleId": 91,
      "inputId": 2,
      "color": "#c9b70e"
    },
    {
      "id": 220,
      "outputModuleId": 94,
      "outputId": 0,
      "inputModuleId": 93,
      "inputId": 0,
      "color": "#c9b70e"
    },
    {
      "id": 205,
      "outputModuleId": 91,
      "outputId": 0,
      "inputModuleId": 96,
      "inputId": 0,
      "color": "#c91847"
    },
    {
      "id": 206,
      "outputModuleId": 91,
      "outputId": 0,
      "inputModuleId": 96,
      "inputId": 1,
      "color": "#0986ad"
    },
    {
      "id": 224,
      "outputModuleId": 93,
      "outputId": 3,
      "inputModuleId": 95,
      "inputId": 5,
      "color": "#0c8e15"
    },
    {
      "id": 225,
      "outputModuleId": 87,
      "outputId": 1,
      "inputModuleId": 95,
      "inputId": 1,
      "color": "#c91847"
    },
    {
      "id": 226,
      "outputModuleId": 87,
      "outputId": 1,
      "inputModuleId": 95,
      "inputId": 2,
      "color": "#0986ad"
    },
    {
      "id": 228,
      "outputModuleId": 97,
      "outputId": 1,
      "inputModuleId": 95,
      "inputId": 6,
      "color": "#c91847"
    },
    {
      "id": 230,
      "outputModuleId": 83,
      "outputId": 3,
      "inputModuleId": 97,
      "inputId": 1,
      "color": "#c9b70e"
    },
    {
      "id": 231,
      "outputModuleId": 97,
      "outputId": 2,
      "inputModuleId": 95,
      "inputId": 0,
      "color": "#0c8e15"
    },
    {
      "id": 232,
      "outputModuleId": 87,
      "outputId": 2,
      "inputModuleId": 95,
      "inputId": 4,
      "color": "#c91847"
    },
    {
      "id": 242,
      "outputModuleId": 95,
      "outputId": 0,
      "inputModuleId": 100,
      "inputId": 1,
      "color": "#c91847"
    },
    {
      "id": 243,
      "outputModuleId": 84,
      "outputId": 3,
      "inputModuleId": 99,
      "inputId": 5,
      "color": "#0986ad"
    },
    {
      "id": 245,
      "outputModuleId": 97,
      "outputId": 3,
      "inputModuleId": 99,
      "inputId": 0,
      "color": "#0c8e15"
    },
    {
      "id": 241,
      "outputModuleId": 99,
      "outputId": 0,
      "inputModuleId": 100,
      "inputId": 0,
      "color": "#0c8e15"
    },
    {
      "id": 248,
      "outputModuleId": 97,
      "outputId": 0,
      "inputModuleId": 101,
      "inputId": 2,
      "color": "#0c8e15"
    },
    {
      "id": 247,
      "outputModuleId": 97,
      "outputId": 2,
      "inputModuleId": 99,
      "inputId": 6,
      "color": "#0986ad"
    },
    {
      "id": 249,
      "outputModuleId": 101,
      "outputId": 2,
      "inputModuleId": 99,
      "inputId": 1,
      "color": "#0986ad"
    },
    {
      "id": 250,
      "outputModuleId": 101,
      "outputId": 0,
      "inputModuleId": 97,
      "inputId": 3,
      "color": "#0c8e15"
    },
    {
      "id": 239,
      "outputModuleId": 102,
      "outputId": 0,
      "inputModuleId": 1,
      "inputId": 1,
      "color": "#c91847"
    },
    {
      "id": 238,
      "outputModuleId": 102,
      "outputId": 1,
      "inputModuleId": 1,
      "inputId": 0,
      "color": "#0c8e15"
    },
    {
      "id": 251,
      "outputModuleId": 100,
      "outputId": 2,
      "inputModuleId": 102,
      "inputId": 6,
      "color": "#c91847"
    },
    {
      "id": 252,
      "outputModuleId": 101,
      "outputId": 3,
      "inputModuleId": 102,
      "inputId": 5,
      "color": "#0986ad"
    },
    {
      "id": 253,
      "outputModuleId": 97,
      "outputId": 0,
      "inputModuleId": 102,
      "inputId": 4,
      "color": "#c9b70e"
    },
    {
      "id": 254,
      "outputModuleId": 97,
      "outputId": 4,
      "inputModuleId": 102,
      "inputId": 0,
      "color": "#0c8e15"
    },
    {
      "id": 240,
      "outputModuleId": 96,
      "outputId": 2,
      "inputModuleId": 99,
      "inputId": 7,
      "color": "#0986ad"
    },
    {
      "id": 221,
      "outputModuleId": 96,
      "outputId": 2,
      "inputModuleId": 95,
      "inputId": 7,
      "color": "#0c8e15"
    },
    {
      "id": 255,
      "outputModuleId": 91,
      "outputId": 0,
      "inputModuleId": 103,
      "inputId": 0,
      "color": "#c9b70e"
    },
    {
      "id": 256,
      "outputModuleId": 91,
      "outputId": 1,
      "inputModuleId": 103,
      "inputId": 1,
      "color": "#0c8e15"
    },
    {
      "id": 257,
      "outputModuleId": 103,
      "outputId": 1,
      "inputModuleId": 96,
      "inputId": 2,
      "color": "#c91847"
    },
    {
      "id": 258,
      "outputModuleId": 102,
      "outputId": 0,
      "inputModuleId": 104,
      "inputId": 0,
      "color": "#0986ad"
    },
    {
      "id": 259,
      "outputModuleId": 102,
      "outputId": 1,
      "inputModuleId": 104,
      "inputId": 1,
      "color": "#0c8e15"
    }
  ]
}