{
  "version": "1.1.6",
  "modules": [
    {
      "id": 1,
      "plugin": "Core",
      "version": "1.1.6",
      "model": "AudioInterface",
      "params": [],
      "leftModuleId": 26,
      "data": {
        "audio": {
          "driver": 5,
          "deviceName": "Apple Inc.: Built-in Output",
          "offset": 0,
          "maxChannels": 8,
          "sampleRate": 44100,
          "blockSize": 4096
        }
      },
      "pos": [
        113,
        0
      ]
    },
    {
      "id": 18,
      "plugin": "Fundamental",
      "version": "1.4.0",
      "model": "Random",
      "params": [
        {
          "id": 0,
          "value": -4.89974213
        },
        {
          "id": 1,
          "value": 0.350999922
        },
        {
          "id": 2,
          "value": 1.0
        },
        {
          "id": 3,
          "value": 1.0
        }
      ],
      "leftModuleId": 22,
      "rightModuleId": 19,
      "pos": [
        21,
        0
      ]
    },
    {
      "id": 19,
      "plugin": "Fundamental",
      "version": "1.4.0",
      "model": "SEQ3",
      "params": [
        {
          "id": 0,
          "value": -0.748000145
        },
        {
          "id": 1,
          "value": 0.0
        },
        {
          "id": 2,
          "value": 0.0
        },
        {
          "id": 3,
          "value": 8.0
        },
        {
          "id": 4,
          "value": 3.64499998
        },
        {
          "id": 5,
          "value": 3.05999923
        },
        {
          "id": 6,
          "value": 3.0599997
        },
        {
          "id": 7,
          "value": 2.80500078
        },
        {
          "id": 8,
          "value": 3.61500096
        },
        {
          "id": 9,
          "value": 1.79999936
        },
        {
          "id": 10,
          "value": 1.91999984
        },
        {
          "id": 11,
          "value": 0.0
        },
        {
          "id": 12,
          "value": 3.32999969
        },
        {
          "id": 13,
          "value": 2.25
        },
        {
          "id": 14,
          "value": 3.76499963
        },
        {
          "id": 15,
          "value": 4.04999971
        },
        {
          "id": 16,
          "value": 3.19500041
        },
        {
          "id": 17,
          "value": 5.13000011
        },
        {
          "id": 18,
          "value": 0.0
        },
        {
          "id": 19,
          "value": 0.0
        },
        {
          "id": 20,
          "value": 10.0
        },
        {
          "id": 21,
          "value": 0.0
        },
        {
          "id": 22,
          "value": 0.0
        },
        {
          "id": 23,
          "value": 9.92500019
        },
        {
          "id": 24,
          "value": 0.0
        },
        {
          "id": 25,
          "value": 9.96999931
        },
        {
          "id": 26,
          "value": 0.0
        },
        {
          "id": 27,
          "value": 0.0
        },
        {
          "id": 28,
          "value": 0.0
        },
        {
          "id": 29,
          "value": 0.0
        },
        {
          "id": 30,
          "value": 0.0
        },
        {
          "id": 31,
          "value": 0.0
        },
        {
          "id": 32,
          "value": 0.0
        },
        {
          "id": 33,
          "value": 0.0
        },
        {
          "id": 34,
          "value": 0.0
        },
        {
          "id": 35,
          "value": 0.0
        }
      ],
      "leftModuleId": 18,
      "rightModuleId": 20,
      "data": {
        "running": true,
        "gates": [
          1,
          1,
          1,
          1,
          1,
          1,
          1,
          1
        ]
      },
      "pos": [
        26,
        0
      ]
    },
    {
      "id": 20,
      "plugin": "Befaco",
      "version": "1.0.1",
      "model": "EvenVCO",
      "params": [
        {
          "id": 0,
          "value": -5.0
        },
        {
          "id": 1,
          "value": 0.0
        },
        {
          "id": 2,
          "value": 1.0
        }
      ],
      "leftModuleId": 19,
      "rightModuleId": 21,
      "pos": [
        48,
        0
      ]
    },
    {
      "id": 21,
      "plugin": "Befaco",
      "version": "1.0.1",
      "model": "ABC",
      "params": [
        {
          "id": 0,
          "value": 1.0
        },
        {
          "id": 1,
          "value": 0.258000195
        },
        {
          "id": 2,
          "value": 0.0
        },
        {
          "id": 3,
          "value": 0.0
        }
      ],
      "leftModuleId": 20,
      "rightModuleId": 23,
      "pos": [
        56,
        0
      ]
    },
    {
      "id": 22,
      "plugin": "Befaco",
      "version": "1.0.1",
      "model": "EvenVCO",
      "params": [
        {
          "id": 0,
          "value": 0.0
        },
        {
          "id": 1,
          "value": 0.0
        },
        {
          "id": 2,
          "value": 0.0
        }
      ],
      "leftModuleId": 27,
      "rightModuleId": 18,
      "pos": [
        13,
        0
      ]
    },
    {
      "id": 23,
      "plugin": "AudibleInstruments",
      "version": "1.2.0",
      "model": "Ripples",
      "params": [
        {
          "id": 0,
          "value": 0.223499984
        },
        {
          "id": 1,
          "value": 4.36677408
        },
        {
          "id": 2,
          "value": 0.993999958
        }
      ],
      "leftModuleId": 21,
      "rightModuleId": 24,
      "pos": [
        62,
        0
      ]
    },
    {
      "id": 24,
      "plugin": "Fundamental",
      "version": "1.4.0",
      "model": "8vert",
      "params": [
        {
          "id": 0,
          "value": 0.195000052
        },
        {
          "id": 1,
          "value": 0.0
        },
        {
          "id": 2,
          "value": 0.0
        },
        {
          "id": 3,
          "value": 0.0
        },
        {
          "id": 4,
          "value": 0.0
        },
        {
          "id": 5,
          "value": 0.0
        },
        {
          "id": 6,
          "value": 0.0
        },
        {
          "id": 7,
          "value": 0.0
        }
      ],
      "leftModuleId": 23,
      "rightModuleId": 25,
      "pos": [
        70,
        0
      ]
    },
    {
      "id": 25,
      "plugin": "AudibleInstruments",
      "version": "1.2.0",
      "model": "Plaits",
      "params": [
        {
          "id": 0,
          "value": 0.0
        },
        {
          "id": 1,
          "value": 0.0
        },
        {
          "id": 2,
          "value": -1.1040014
        },
        {
          "id": 3,
          "value": 0.754999638
        },
        {
          "id": 4,
          "value": 0.444499642
        },
        {
          "id": 5,
          "value": 0.670999825
        },
        {
          "id": 6,
          "value": -1.0
        },
        {
          "id": 7,
          "value": 0.477000087
        },
        {
          "id": 8,
          "value": 0.0120000681
        },
        {
          "id": 9,
          "value": 0.5
        },
        {
          "id": 10,
          "value": 0.5
        }
      ],
      "leftModuleId": 24,
      "data": {
        "lowCpu": false,
        "model": 13
      },
      "pos": [
        78,
        0
      ]
    },
    {
      "id": 26,
      "plugin": "AudibleInstruments",
      "version": "1.2.0",
      "model": "Frames",
      "params": [
        {
          "id": 0,
          "value": 0.624000251
        },
        {
          "id": 1,
          "value": 0.195000052
        },
        {
          "id": 2,
          "value": 0.995499969
        },
        {
          "id": 3,
          "value": 0.875999928
        },
        {
          "id": 4,
          "value": 0.0
        },
        {
          "id": 5,
          "value": 0.0
        },
        {
          "id": 6,
          "value": 0.0
        },
        {
          "id": 7,
          "value": 1.0
        },
        {
          "id": 8,
          "value": 0.0
        }
      ],
      "rightModuleId": 1,
      "data": {
        "polyLfo": false,
        "keyframes": [],
        "channels": [
          {
            "curve": 1,
            "response": 0
          },
          {
            "curve": 1,
            "response": 0
          },
          {
            "curve": 1,
            "response": 0
          },
          {
            "curve": 1,
            "response": 0
          }
        ]
      },
      "pos": [
        95,
        0
      ]
    },
    {
      "id": 27,
      "plugin": "computerscare",
      "version": "1.3.0",
      "model": "computerscare-laundry-soup",
      "params": [
        {
          "id": 0,
          "value": 0.0
        },
        {
          "id": 1,
          "value": 0.0
        },
        {
          "id": 2,
          "value": 0.0
        },
        {
          "id": 3,
          "value": 0.0
        },
        {
          "id": 4,
          "value": 0.0
        },
        {
          "id": 5,
          "value": 0.0
        },
        {
          "id": 6,
          "value": 0.0
        },
        {
          "id": 7,
          "value": 0.0
        }
      ],
      "rightModuleId": 22,
      "data": {
        "sequences": [
          "1",
          "2",
          "3",
          "4",
          "5",
          "11441768@120"
        ],
        "channelCount": [
          -1,
          -1,
          -1,
          -1,
          -1,
          -1
        ]
      },
      "pos": [
        0,
        0
      ]
    },
    {
      "id": 28,
      "plugin": "Fundamental",
      "version": "1.4.0",
      "model": "SEQ3",
      "params": [
        {
          "id": 0,
          "value": -0.748000145
        },
        {
          "id": 1,
          "value": 0.0
        },
        {
          "id": 2,
          "value": 0.0
        },
        {
          "id": 3,
          "value": 8.0
        },
        {
          "id": 4,
          "value": 3.64499998
        },
        {
          "id": 5,
          "value": 3.05999923
        },
        {
          "id": 6,
          "value": 3.0599997
        },
        {
          "id": 7,
          "value": 2.80500078
        },
        {
          "id": 8,
          "value": 3.61500096
        },
        {
          "id": 9,
          "value": 1.79999936
        },
        {
          "id": 10,
          "value": 1.91999984
        },
        {
          "id": 11,
          "value": 0.0
        },
        {
          "id": 12,
          "value": 3.32999969
        },
        {
          "id": 13,
          "value": 2.25
        },
        {
          "id": 14,
          "value": 3.76499963
        },
        {
          "id": 15,
          "value": 4.04999971
        },
        {
          "id": 16,
          "value": 3.19500041
        },
        {
          "id": 17,
          "value": 5.13000011
        },
        {
          "id": 18,
          "value": 0.0
        },
        {
          "id": 19,
          "value": 0.0
        },
        {
          "id": 20,
          "value": 10.0
        },
        {
          "id": 21,
          "value": 0.0
        },
        {
          "id": 22,
          "value": 0.0
        },
        {
          "id": 23,
          "value": 9.92500019
        },
        {
          "id": 24,
          "value": 0.0
        },
        {
          "id": 25,
          "value": 9.96999931
        },
        {
          "id": 26,
          "value": 0.0
        },
        {
          "id": 27,
          "value": 0.0
        },
        {
          "id": 28,
          "value": 0.0
        },
        {
          "id": 29,
          "value": 0.0
        },
        {
          "id": 30,
          "value": 0.0
        },
        {
          "id": 31,
          "value": 0.0
        },
        {
          "id": 32,
          "value": 0.0
        },
        {
          "id": 33,
          "value": 0.0
        },
        {
          "id": 34,
          "value": 0.0
        },
        {
          "id": 35,
          "value": 0.0
        }
      ],
      "leftModuleId": 29,
      "rightModuleId": 30,
      "data": {
        "running": true,
        "gates": [
          1,
          1,
          1,
          1,
          1,
          1,
          1,
          1
        ]
      },
      "pos": [
        26,
        1
      ]
    },
    {
      "id": 29,
      "plugin": "AudibleInstruments",
      "version": "1.2.0",
      "model": "Braids",
      "params": [
        {
          "id": 0,
          "value": 0.0
        },
        {
          "id": 1,
          "value": -3.06799865
        },
        {
          "id": 2,
          "value": 0.0
        },
        {
          "id": 3,
          "value": 0.21799992
        },
        {
          "id": 4,
          "value": 0.516000032
        },
        {
          "id": 5,
          "value": 0.721999884
        },
        {
          "id": 6,
          "value": 0.0824999809
        }
      ],
      "rightModuleId": 28,
      "data": {
        "settings": [
          4,
          0,
          0,
          0,
          0,
          0,
          0,
          0,
          0,
          0,
          0,
          0,
          0,
          0,
          0,
          0,
          0,
          0,
          0,
          0
        ],
        "lowCpu": false
      },
      "pos": [
        10,
        1
      ]
    },
    {
      "id": 30,
      "plugin": "Fundamental",
      "version": "1.4.0",
      "model": "VCF",
      "params": [
        {
          "id": 0,
          "value": 0.399500161
        },
        {
          "id": 1,
          "value": 0.5
        },
        {
          "id": 2,
          "value": 0.420000017
        },
        {
          "id": 3,
          "value": 0.837000012
        },
        {
          "id": 4,
          "value": 0.370500088
        }
      ],
      "leftModuleId": 28,
      "rightModuleId": 31,
      "pos": [
        48,
        1
      ]
    },
    {
      "id": 31,
      "plugin": "Fundamental",
      "version": "1.4.0",
      "model": "Noise",
      "params": [],
      "leftModuleId": 30,
      "rightModuleId": 32,
      "pos": [
        56,
        1
      ]
    },
    {
      "id": 32,
      "plugin": "Fundamental",
      "version": "1.4.0",
      "model": "ADSR",
      "params": [
        {
          "id": 0,
          "value": 0.0
        },
        {
          "id": 1,
          "value": 0.312499762
        },
        {
          "id": 2,
          "value": 0.00449999981
        },
        {
          "id": 3,
          "value": 0.475999981
        }
      ],
      "leftModuleId": 31,
      "rightModuleId": 33,
      "pos": [
        59,
        1
      ]
    },
    {
      "id": 33,
      "plugin": "Fundamental",
      "version": "1.4.0",
      "model": "VCA",
      "params": [
        {
          "id": 0,
          "value": 0.51850009
        },
        {
          "id": 1,
          "value": 1.0
        }
      ],
      "leftModuleId": 32,
      "pos": [
        67,
        1
      ]
    },
    {
      "id": 34,
      "plugin": "AudibleInstruments",
      "version": "1.2.0",
      "model": "Clouds",
      "params": [
        {
          "id": 0,
          "value": 0.0
        },
        {
          "id": 1,
          "value": 0.0
        },
        {
          "id": 2,
          "value": 0.0
        },
        {
          "id": 3,
          "value": 0.0075000003
        },
        {
          "id": 4,
          "value": 0.41899997
        },
        {
          "id": 5,
          "value": 1.99399996
        },
        {
          "id": 6,
          "value": 0.5
        },
        {
          "id": 7,
          "value": 0.677500069
        },
        {
          "id": 8,
          "value": 0.537499905
        },
        {
          "id": 9,
          "value": 0.328999758
        },
        {
          "id": 10,
          "value": 0.0
        },
        {
          "id": 11,
          "value": 0.0
        },
        {
          "id": 12,
          "value": 0.633000255
        }
      ],
      "data": {
        "playback": 0,
        "quality": 0,
        "blendMode": 0
      },
      "pos": [
        81,
        1
      ]
    }
  ],
  "cables": [
    {
      "id": 1,
      "outputModuleId": 18,
      "outputId": 0,
      "inputModuleId": 19,
      "inputId": 0,
      "color": "#0c8e15"
    },
    {
      "id": 5,
      "outputModuleId": 18,
      "outputId": 2,
      "inputModuleId": 21,
      "inputId": 0,
      "color": "#c91847"
    },
    {
      "id": 6,
      "outputModuleId": 19,
      "outputId": 2,
      "inputModuleId": 21,
      "inputId": 1,
      "color": "#0986ad"
    },
    {
      "id": 7,
      "outputModuleId": 21,
      "outputId": 0,
      "inputModuleId": 20,
      "inputId": 0,
      "color": "#c9b70e"
    },
    {
      "id": 8,
      "outputModuleId": 22,
      "outputId": 1,
      "inputModuleId": 21,
      "inputId": 2,
      "color": "#0c8e15"
    },
    {
      "id": 9,
      "outputModuleId": 20,
      "outputId": 3,
      "inputModuleId": 23,
      "inputId": 3,
      "color": "#c91847"
    },
    {
      "id": 10,
      "outputModuleId": 18,
      "outputId": 1,
      "inputModuleId": 23,
      "inputId": 2,
      "color": "#0986ad"
    },
    {
      "id": 11,
      "outputModuleId": 21,
      "outputId": 0,
      "inputModuleId": 24,
      "inputId": 0,
      "color": "#c9b70e"
    },
    {
      "id": 12,
      "outputModuleId": 24,
      "outputId": 0,
      "inputModuleId": 23,
      "inputId": 0,
      "color": "#0c8e15"
    },
    {
      "id": 15,
      "outputModuleId": 23,
      "outputId": 2,
      "inputModuleId": 26,
      "inputId": 1,
      "color": "#c9b70e"
    },
    {
      "id": 0,
      "outputModuleId": 19,
      "outputId": 0,
      "inputModuleId": 18,
      "inputId": 2,
      "color": "#c9b70e"
    },
    {
      "id": 16,
      "outputModuleId": 19,
      "outputId": 3,
      "inputModuleId": 25,
      "inputId": 5,
      "color": "#0c8e15"
    },
    {
      "id": 17,
      "outputModuleId": 25,
      "outputId": 0,
      "inputModuleId": 26,
      "inputId": 2,
      "color": "#c91847"
    },
    {
      "id": 18,
      "outputModuleId": 20,
      "outputId": 1,
      "inputModuleId": 25,
      "inputId": 7,
      "color": "#0986ad"
    },
    {
      "id": 19,
      "outputModuleId": 19,
      "outputId": 0,
      "inputModuleId": 27,
      "inputId": 3,
      "color": "#0c8e15"
    },
    {
      "id": 22,
      "outputModuleId": 22,
      "outputId": 4,
      "inputModuleId": 27,
      "inputId": 9,
      "color": "#0c8e15"
    },
    {
      "id": 25,
      "outputModuleId": 19,
      "outputId": 1,
      "inputModuleId": 23,
      "inputId": 1,
      "color": "#c9b70e"
    },
    {
      "id": 26,
      "outputModuleId": 19,
      "outputId": 1,
      "inputModuleId": 25,
      "inputId": 1,
      "color": "#0c8e15"
    },
    {
      "id": 28,
      "outputModuleId": 28,
      "outputId": 1,
      "inputModuleId": 29,
      "inputId": 1,
      "color": "#0986ad"
    },
    {
      "id": 29,
      "outputModuleId": 18,
      "outputId": 2,
      "inputModuleId": 28,
      "inputId": 0,
      "color": "#c9b70e"
    },
    {
      "id": 30,
      "outputModuleId": 19,
      "outputId": 2,
      "inputModuleId": 29,
      "inputId": 4,
      "color": "#0c8e15"
    },
    {
      "id": 31,
      "outputModuleId": 19,
      "outputId": 3,
      "inputModuleId": 29,
      "inputId": 3,
      "color": "#c91847"
    },
    {
      "id": 27,
      "outputModuleId": 30,
      "outputId": 0,
      "inputModuleId": 26,
      "inputId": 3,
      "color": "#c91847"
    },
    {
      "id": 32,
      "outputModuleId": 29,
      "outputId": 0,
      "inputModuleId": 30,
      "inputId": 3,
      "color": "#0986ad"
    },
    {
      "id": 33,
      "outputModuleId": 21,
      "outputId": 0,
      "inputModuleId": 30,
      "inputId": 0,
      "color": "#c9b70e"
    },
    {
      "id": 34,
      "outputModuleId": 32,
      "outputId": 0,
      "inputModuleId": 33,
      "inputId": 0,
      "color": "#c91847"
    },
    {
      "id": 36,
      "outputModuleId": 33,
      "outputId": 0,
      "inputModuleId": 26,
      "inputId": 4,
      "color": "#c9b70e"
    },
    {
      "id": 37,
      "outputModuleId": 19,
      "outputId": 0,
      "inputModuleId": 32,
      "inputId": 4,
      "color": "#0c8e15"
    },
    {
      "id": 38,
      "outputModuleId": 28,
      "outputId": 2,
      "inputModuleId": 32,
      "inputId": 1,
      "color": "#c91847"
    },
    {
      "id": 35,
      "outputModuleId": 31,
      "outputId": 6,
      "inputModuleId": 33,
      "inputId": 2,
      "color": "#0986ad"
    },
    {
      "id": 39,
      "outputModuleId": 29,
      "outputId": 0,
      "inputModuleId": 33,
      "inputId": 1,
      "color": "#0986ad"
    },
    {
      "id": 40,
      "outputModuleId": 34,
      "outputId": 0,
      "inputModuleId": 1,
      "inputId": 0,
      "color": "#c9b70e"
    },
    {
      "id": 41,
      "outputModuleId": 34,
      "outputId": 1,
      "inputModuleId": 1,
      "inputId": 1,
      "color": "#0c8e15"
    },
    {
      "id": 42,
      "outputModuleId": 26,
      "outputId": 0,
      "inputModuleId": 34,
      "inputId": 6,
      "color": "#c91847"
    }
  ]
}